# xmcd CD database file
#
# Track frame offsets:
#	150
#	22123
#	42780
#	63846
#	85331
#	108446
#	130523
#	149457
#	171618
#	188819
#	208249
#	231517
#
# Disc length: 3262 seconds
#
# Revision: 0
# Processed by: cddbd v1.5.2PL0 Copyright (c) Steve Scherf et al.
# Submitted via: CDex 1.51
#
DISCID=b00cbc0c
DTITLE=Missa Johnouchi - Spiritual Discovery
DYEAR=2009
DGENRE=New Age
TTITLE0=Original Scenery
TTITLE1=Glowing Horizon
TTITLE2=Fluttering
TTITLE3=Journey To The Next World
TTITLE4=Rising Sun
TTITLE5=Live In Quiet
TTITLE6=Japonisme
TTITLE7=Peace Of Mind
TTITLE8=Purplish Tone
TTITLE9=Beauty In The Seasons
TTITLE10=Journey Of The Soul
TTITLE11=Original Scenery (Piano Solo)
EXTD=YEAR: 2009
EXTT0=
EXTT1=
EXTT2=
EXTT3=
EXTT4=
EXTT5=
EXTT6=
EXTT7=
EXTT8=
EXTT9=
EXTT10=
EXTT11=
PLAYORDER=
